<svg xmlns="http://www.w3.org/2000/svg" viewBox="0 0 604.69 178.42"><defs><style>.cls-1{fill:#fff;}</style></defs><g id="Layer_2" data-name="Layer 2"><g id="Layer_1-2" data-name="Layer 1"><path class="cls-1" d="M453.75,4.65c-52.94-9.88-110-7.21-141,40.1-9-67.09-94-35.91-141.27-42.56.57,36.41-1.43,79-3.34,114.86,61.24-15.34,124.57-28.16,188.4-37.77,12.07-43.56,61.2-45.64,99.14-34.22C454.84,32.29,453.87,17,453.75,4.65Zm-199,64.82C246.41,77.4,230,77,218.19,72.58c.5-12,1.1-23.65,1.79-33.67,11.25-.21,25.26-3.72,35.17,2.39C263.93,47.8,262.22,62.53,254.73,69.47Z"/><path class="cls-1" d="M426.07,135.9a238.21,238.21,0,0,0,26.55-5.62c-1.85,8.76-5.73,32.51-6.61,41.39-54.27,9.7-126.26,5.75-143.24-55.42-28.29,4.91-57.16,10.06-86.52,15.65-.5,19.44-.43,24.45-.42,39.56-19.75-.21-27-.37-51.56,0l2.32-30C109.9,152.79,53.14,165.16,0,178.42,135.84,124.72,427.75,65.29,604.69,70.49c0,0-107.58,13.47-247.73,36.58C366.48,135.53,398.66,140.62,426.07,135.9Z"/></g></g></svg>